<?xml version="1.0" encoding="UTF-8"?>
<svg width="128" height="128" viewBox="0 0 128 128" fill="none" xmlns="http://www.w3.org/2000/svg">
    <!-- Background Shield -->
    <path d="M64 8L16 32V64C16 96.5 36.5 126.5 64 126.5C91.5 126.5 112 96.5 112 64V32L64 8Z" fill="#007AFF"/>
    
    <!-- Inner Shield Highlight -->
    <path d="M64 16L26 36V64C26 92 43.5 118 64 118C84.5 118 102 92 102 64V36L64 16Z" fill="#ffffff" fill-opacity="0.2"/>
    
    <!-- Email Icon -->
    <path d="M40 52V76H88V52H40ZM64 66.5L44.8 56H83.2L64 66.5ZM45.6 72V57.6L64 67.5L82.4 57.6V72H45.6Z" fill="white"/>
    
    <!-- Shield Shine -->
    <path d="M26 36L64 16L102 36C102 36 98 42 92 46C86 50 64 58 64 58C64 58 42 50 36 46C30 42 26 36 26 36Z" fill="white" fill-opacity="0.3"/>
</svg>
